<svg version="1.1" xmlns="http://www.w3.org/2000/svg" viewBox="0 0 20 20" width="20" height="20">
  <!-- svg-source:excalidraw -->
  
  <defs>
    <style class="style-fonts">
      @font-face {
        font-family: "Virgil";
        src: url("https://unpkg.com/@excalidraw/excalidraw@0.15.2/dist/excalidraw-assets/Virgil.woff2");
      }
      @font-face {
        font-family: "Cascadia";
        src: url("https://unpkg.com/@excalidraw/excalidraw@0.15.2/dist/excalidraw-assets/Cascadia.woff2");
      }
    </style>
  </defs>
  <rect x="0" y="0" width="18" height="18" fill="#ffffff"></rect><g stroke-linecap="round" transform="translate(1 1) rotate(0 10.848663330078125 9.800483703613281)"><path d="M4.9 0 M4.9 0 C8.38 0.2, 14.83 -0.19, 16.8 0 M4.9 0 C7.19 0.2, 9.82 -0.57, 16.8 0 M16.8 0 C19.86 -0.96, 23.28 2.48, 21.7 4.9 M16.8 0 C21.22 -0.52, 21.48 1.52, 21.7 4.9 M21.7 4.9 C21.06 8.2, 22.2 11.08, 21.7 14.7 M21.7 4.9 C22.11 7.7, 21.81 9.44, 21.7 14.7 M21.7 14.7 C23.59 16.63, 18.95 18.4, 16.8 19.6 M21.7 14.7 C22.52 19.29, 21.63 18.27, 16.8 19.6 M16.8 19.6 C13.35 18.99, 9.56 19.86, 4.9 19.6 M16.8 19.6 C12.27 19.26, 8.5 19.91, 4.9 19.6 M4.9 19.6 C-0.03 18.12, -1.42 18.52, 0 14.7 M4.9 19.6 C2.44 21.72, 0.41 19.61, 0 14.7 M0 14.7 C-0.6 10.73, 0.81 7.57, 0 4.9 M0 14.7 C-0.44 12.23, -0.19 9.67, 0 4.9 M0 4.9 C-0.42 1.02, 1.96 -0.45, 4.9 0 M0 4.9 C-0.42 0.38, -0.36 2.26, 4.9 0" stroke="#000000" stroke-width="1" fill="none"></path></g><g transform="translate(1 1) rotate(0 6.55999755859375 12.5)"><text x="0" y="0" font-family="Virgil, Segoe UI Emoji" font-size="20px" fill="#000000" text-anchor="start" style="white-space: pre;" direction="ltr" dominant-baseline="text-before-edge">A</text></g></svg>